<?xml version="1.0" encoding="UTF-8" standalone="no"?>
<!DOCTYPE svg PUBLIC "-//W3C//DTD SVG 20010904//EN"
              "http://www.w3.org/TR/2001/REC-SVG-20010904/DTD/svg10.dtd">

<svg xmlns="http://www.w3.org/2000/svg"
     width="2.22222in" height="2.22222in"
     viewBox="0 0 200 200">
  <path id="選択範囲"
        fill="none" stroke="black" stroke-width="1"
        d="M 0.00,0.00
           C 0.00,0.00 0.00,62.00 0.00,62.00
             0.00,62.00 58.00,62.00 58.00,62.00
             58.00,62.00 95.00,61.00 95.00,61.00
             93.17,47.13 93.02,47.50 99.00,35.00
             99.00,35.00 107.06,43.00 107.06,43.00
             107.06,43.00 111.49,48.98 111.49,48.98
             111.49,48.98 128.00,53.00 128.00,53.00
             126.44,59.07 122.88,64.10 117.00,66.72
             112.97,68.52 110.23,67.33 107.85,69.57
             107.85,69.57 101.64,80.00 101.64,80.00
             97.21,86.62 92.38,92.15 86.00,96.96
             75.02,105.22 60.70,109.98 47.00,110.00
             40.38,110.01 33.36,110.49 27.00,108.40
             20.41,106.25 14.34,102.08 9.76,96.91
             5.06,91.62 2.10,86.00 1.00,79.00
             -0.89,83.76 0.00,105.44 0.00,112.00
             0.00,112.00 0.00,185.00 0.00,185.00
             0.00,185.00 131.00,185.00 131.00,185.00
             131.00,185.00 122.00,182.96 122.00,182.96
             110.10,179.56 87.86,171.38 82.00,160.00
             82.00,160.00 103.00,168.79 103.00,168.79
             118.46,173.98 129.95,175.03 146.00,175.00
             154.49,174.99 165.78,172.63 174.00,170.29
             176.07,169.70 184.04,166.71 185.54,167.41
             190.01,169.47 179.08,174.82 178.00,175.41
             170.32,179.63 157.78,183.81 149.00,184.00
             149.00,184.00 166.00,185.00 166.00,185.00
             166.00,185.00 200.00,185.00 200.00,185.00
             200.00,185.00 200.00,0.00 200.00,0.00
             200.00,0.00 0.00,0.00 0.00,0.00 Z
           M 56.00,31.00
           C 56.00,31.00 56.00,17.00 56.00,17.00
             58.77,17.00 67.48,16.50 69.40,18.02
             71.92,20.01 71.75,28.90 68.69,30.40
             66.84,31.31 58.52,31.00 56.00,31.00 Z
           M 39.00,32.00
           C 39.00,32.00 39.00,46.00 39.00,46.00
             39.00,46.00 25.00,46.00 25.00,46.00
             25.00,46.00 25.00,32.00 25.00,32.00
             25.00,32.00 39.00,32.00 39.00,32.00 Z
           M 55.00,32.00
           C 55.00,32.00 55.00,46.00 55.00,46.00
             52.23,46.00 43.52,46.50 41.60,44.98
             39.08,42.99 39.25,34.10 42.31,32.60
             44.16,31.69 52.48,32.00 55.00,32.00 Z
           M 56.00,46.00
           C 56.00,46.00 56.00,32.00 56.00,32.00
             58.52,32.00 66.84,31.69 68.69,32.60
             71.75,34.10 71.92,42.99 69.40,44.98
             67.48,46.50 58.77,46.00 56.00,46.00 Z
           M 9.00,47.00
           C 11.77,47.00 20.48,46.50 22.40,48.02
             23.89,49.20 23.92,51.27 23.98,53.00
             24.06,55.08 24.19,58.56 22.40,59.98
             20.06,61.83 11.06,61.67 9.60,58.69
             8.72,56.89 9.00,49.39 9.00,47.00 Z
           M 39.00,47.00
           C 39.00,47.00 39.00,61.00 39.00,61.00
             39.00,61.00 25.00,61.00 25.00,61.00
             25.00,61.00 25.00,47.00 25.00,47.00
             25.00,47.00 39.00,47.00 39.00,47.00 Z
           M 55.00,47.00
           C 55.00,49.39 55.28,56.89 54.40,58.69
             52.88,61.80 43.03,61.94 41.02,59.40
             39.52,57.51 40.00,49.66 40.00,47.00
             40.00,47.00 55.00,47.00 55.00,47.00 Z
           M 70.00,49.00
           C 74.42,45.84 80.77,47.00 86.00,47.00
             86.00,49.39 86.28,56.89 85.40,58.84
             83.42,62.73 73.90,61.14 71.00,58.84
             66.77,62.02 61.00,61.00 56.00,61.00
             56.00,61.00 56.00,47.00 56.00,47.00
             60.11,47.00 67.14,45.81 70.00,49.00 Z
           M 109.00,146.97
           C 104.62,150.48 99.76,153.31 94.00,151.11
             85.12,147.71 84.66,135.68 93.02,131.16
             97.87,128.53 102.85,129.77 108.00,130.00
             106.66,118.45 97.98,122.20 89.82,124.00
             89.58,122.34 88.99,120.98 89.82,119.22
             91.48,114.24 103.88,114.34 108.00,115.65
             110.11,116.32 111.92,117.45 113.30,119.21
             117.14,124.11 115.75,133.01 116.04,139.00
             116.04,139.00 116.89,146.97 116.89,146.97
             115.85,152.54 111.31,149.66 109.00,146.97 Z
           M 167.89,143.00
           C 167.89,143.00 175.00,144.54 175.00,144.54
             177.88,145.03 188.71,144.00 183.46,138.84
             181.93,137.32 176.59,136.04 174.02,134.59
             168.48,131.45 165.91,124.64 169.89,119.21
             173.20,114.69 180.94,114.29 186.00,115.34
             188.35,115.83 192.22,117.59 191.26,120.69
             189.93,124.98 175.75,118.42 176.76,125.09
             177.32,128.81 183.26,129.66 186.00,130.85
             194.40,134.50 194.84,143.93 189.77,148.58
             183.99,153.89 169.70,152.55 167.89,147.75
             167.08,145.97 167.61,144.69 167.89,143.00 Z
           M 131.00,140.00
           C 131.00,140.00 133.00,140.00 133.00,140.00
             133.00,140.00 135.89,123.00 135.89,123.00
             135.89,123.00 138.56,117.02 138.56,117.02
             138.56,117.02 146.00,116.00 146.00,116.00
             146.00,116.00 151.00,140.00 151.00,140.00
             158.89,124.52 151.88,116.18 166.00,116.00
             166.00,116.00 159.35,138.00 159.35,138.00
             159.35,138.00 156.35,147.85 156.35,147.85
             154.58,151.15 150.26,151.88 148.14,149.43
             147.16,148.30 146.44,145.47 145.98,144.00
             145.98,144.00 144.15,138.00 144.15,138.00
             144.15,138.00 142.00,128.00 142.00,128.00
             142.00,128.00 137.80,143.00 137.80,143.00
             137.80,143.00 135.27,150.01 135.27,150.01
             135.27,150.01 128.00,151.00 128.00,151.00
             128.00,151.00 118.00,116.00 118.00,116.00
             120.00,116.03 122.80,115.85 124.50,117.02
             128.40,119.71 130.78,135.21 131.00,140.00 Z
           M 108.00,136.10
           C 108.00,136.10 104.00,136.10 104.00,136.10
             102.68,136.01 100.28,135.98 99.06,136.10
             88.29,139.26 102.77,151.35 107.26,140.89
             107.93,139.35 107.90,137.64 108.00,136.10 Z
           M 188.00,180.00
           C 188.00,180.00 191.00,164.00 191.00,164.00
             191.00,164.00 176.00,164.00 176.00,164.00
             176.62,162.18 176.60,161.52 178.29,160.22
             181.74,157.58 192.86,155.75 196.40,158.93
             200.16,162.32 197.17,177.17 188.00,180.00 Z" />
</svg>
